#!OML:ASF E:/inclinewalkrobotboard/Project1/Captureday1/Session1/subject1.ASF
:FULLY-SPECIFIED
:DEGREES
238
root 0 0 0 -2.2208575446780965 -4.698771880178315 -6.113885278033284
lowerback 10.810313493713515 1.0132899854425854 4.3326233858404875
upperback -0.5121691335117776 1.987281842878134 2.121266975952399
thorax -6.484652495599419 0.8755110868150426 -0.5416783416946253
lowerneck -17.458808114073175 -3.033069294462115 -0.8989253232989403
upperneck 13.229976623105578 -3.5351697766963674 -1.0334388371606298
head 6.820066434094816 -1.8884039743007768 -0.6252819084950505
rclavicle -2.8258200361542903E-15 1.5998397074468233E-15
rhumerus -28.814761198726554 -25.745589964995208 -79.94371432106168
rradius 24.860878064650485
rwrist 17.457805285547227
rhand -20.78813881752461 26.89597272936828
rfingers 7.125019999999989
rthumb 5.609817954558958 -3.2534460012978315
lclavicle -1.2940537755219123E-15 9.730149605321016E-16
lhumerus -31.217721434020277 -2.0215468970113255 82.42513079259018
lradius 30.929838223686318
lwrist 8.672842833368888
lhand -27.987439439178086 25.58584624866614
lfingers 7.125020000000011
lthumb -1.388026024133321 55.58390160119109
rfemur -9.049156763819157 6.631925658832708 30.503097116235963
rtibia 35.209661749049275
rfoot -12.762606182115848 -6.865475859913612
rtoes 3.9145706857493057
lfemur -18.68536335548299 3.4554237844192226 -16.325757732431196
ltibia 43.36455844258075
lfoot -0.1642733784773558 -7.419108677300603
ltoes -8.064364799118582
239
root 0 0 0 -1.6566142630735579 -5.082593785312808 -7.572532380410651
lowerback 10.0710434451666 1.8566597401999907 5.764157934935902
upperback -0.9472511623289015 3.23219679928349 1.741296400188134
thorax -6.548243008509632 1.4567908064675668 -1.9136595909097522
lowerneck -17.4480474201146 -3.202076374706902 -0.900373488392564
upperneck 12.88475669783503 -4.044396743316733 -0.22789629636609043
head 6.803003151031393 -2.0382639298236733 -0.39593050011024217
rclavicle -2.6975414007467395E-15 2.079037547655028E-15
rhumerus -27.87205042948914 -24.328163151607857 -79.67807661839639
rradius 26.931790360574873
rwrist 16.587978899241932
rhand -21.04597214468297 27.47881562745588
rfingers 7.125019999999991
rthumb 5.3574273028583015 -2.68866254586257
lclavicle -7.960174055074097E-16 1.279478565307966E-15
lhumerus -32.19353233510455 -0.8781944706419972 81.93227894138745
lradius 29.771026189565312
lwrist 7.838446608529226
lhand -27.81095191686591 25.89924236760641
lfingers 7.125020000000008
lthumb -1.2137434298620802 55.89876667516154
rfemur -7.471184962932267 6.850964301007769 30.76128777050868
rtibia 33.49968699097892
rfoot -13.447242188110371 -6.657383038257233
rtoes 3.650663351954104
lfemur -19.94571363792243 2.8024660170098343 -14.985863787025929
ltibia 41.75776862651951
lfoot -1.7044976395391433 -5.328686679622827
ltoes -12.428371608103737
240
root 0 0 0 -1.416392252133847 -5.337381924546946 -8.093961429240581
lowerback 9.553138033491017 2.3636018997643107 6.411350906009544
upperback -1.03139315956024 3.930037288385236 1.34815631210183
thorax -6.37086365843115 1.7836761648523873 -2.7683021903906977
lowerneck -17.064611135509686 -3.1393100684495208 -0.890542252929007
upperneck 12.831454940003962 -4.197517498486085 0.49735978892017174
head 6.768753602990696 -2.029618621618723 -0.15915428054533037
rclavicle -3.861916881446205E-15 2.1701423334362262E-15
rhumerus -27.0841585432702 -22.50313480684847 -79.70241113462815
rradius 28.517486091802304
rwrist 15.888561410233162
rhand -21.098582289040895 28.196513222885436
rfingers 7.125019999999994
rthumb 5.304080301059871 -1.9674645333274086
lclavicle -2.1495266260046363E-15 1.0291135315616902E-15
lhumerus -33.93110588233278 2.3100807656626454 81.09747146916357
lradius 25.613960809262338
lwrist 4.735870912170495
lhand -27.32614560579626 26.32215461821662
lfingers 7.125020000000006
lthumb -0.7370143139223506 56.31419665056153
rfemur -6.384716187254061 6.893770470132823 30.716736742373975
rtibia 32.571504328244345
rfoot -13.636057333386846 -6.418872995092154
rtoes 3.5273732594677103
lfemur -21.28432055692455 1.7607226319053462 -12.65368461399601
ltibia 39.227900548532936
lfoot -4.424403826401727 -1.8869520118336847
ltoes -21.01640756119471
241
root 0 0 0 -1.261982287967842 -5.484815967508352 -8.271480407550252
lowerback 9.506586848530201 2.5721264035249094 6.664657038038916
upperback -0.748853396367389 4.213955041728329 1.2228688856395993
thorax -6.042186699398483 1.9175389304890633 -3.068197291136081
lowerneck -16.398227517716442 -3.1214939049611696 -0.9539066718873771
upperneck 13.15790151310543 -4.268408086330585 0.9430300213082558
head 6.773684576285351 -2.02599585733713 -0.0016762855772955443
rclavicle -5.2425094770655536E-15 1.724309650224557E-15
rhumerus -26.691060677945377 -20.825624410774324 -80.11353225428141
rradius 29.146510458184157
rwrist 15.998079684747655
rhand -20.983452473023426 28.906864048988716
rfingers 7.125019999999995
rthumb 5.413677187353438 -1.2466795202325542
lclavicle -4.5930189616019675E-15 7.588146838904894E-16
lhumerus -35.178722447306505 6.23820446900317 80.46434160836277
lradius 19.651029774867347
lwrist 0.4149250545746628
lhand -26.87858140977376 26.70063226713858
lfingers 7.125019999999996
lthumb -0.32006849599265585 56.70111686333822
rfemur -5.629552674534336 6.784919348060317 30.3491558164785
rtibia 32.09949556241281
rfoot -13.412271743530493 -6.13094681144544
rtoes 3.4942670361241452
lfemur -22.03403365696709 0.9833757841411503 -11.738141617837694
ltibia 37.827724449491775
lfoot -5.503147157267932 -0.2983623472049808
ltoes -23.761549195995723
242
root 0 0 0 -1.1262181746481152 -5.556994500773593 -8.34512396309925
lowerback 9.463136479725437 2.6603838522533803 6.712625826476999
upperback -0.5451648722522772 4.327779596479317 1.1930011735911785
thorax -5.790170625505297 1.973818120566584 -3.1337568384841963
lowerneck -15.726256461920665 -3.120694821227137 -0.9773335203155297
upperneck 13.57022477515222 -4.320541414027237 1.2521040626789932
head 6.806691702884868 -2.0280010666817323 0.10563422597242442
rclavicle -5.61238935810493E-15 1.0555497620971623E-15
rhumerus -27.09793194392063 -19.805337114685763 -80.95863858468009
rradius 28.388570704458818
rwrist 16.579101832730547
rhand -20.79384533987571 29.449176326259575
rfingers 7.125019999999994
rthumb 5.5970737682616125 -0.7006554079413547
lclavicle -5.4733139444554066E-15 5.285605516157118E-16
lhumerus -35.38989498215096 8.087644356975975 80.23633189748581
lradius 16.639061107198284
lwrist -1.7151537951388627
lhand -26.762609596051373 26.740268088268337
lfingers 7.125019999999985
lthumb -0.231554293335698 56.75022434652466
rfemur -5.263980113713654 6.502393828111257 29.653497587452748
rtibia 32.30635485340373
rfoot -12.647143952758224 -5.773173935452095
rtoes 3.670244739512917
lfemur -22.089521670420474 0.8326959074830627 -13.25617315115106
ltibia 38.486351713714214
lfoot -3.6424450539765854 -1.9782507534381506
ltoes -16.339037051101663
